<svg version="1.1" id="Capa_1" xmlns="http://www.w3.org/2000/svg" xmlns:xlink="http://www.w3.org/1999/xlink" x="0px" y="0px"
	 width="150px" height="150px" viewBox="0 0 324.187 324.187" fill="#eae3b5" style="enable-background:new 0 0 324.187 324.187;"
	 xml:space="preserve">
<g>
	<g>
		<path d="M40.395,45.259l7.573,24.796l1.196,0.466c0.494,0.191,12.254,4.72,28.782,4.72c9.714,0,19.074-1.579,27.802-4.688
			l1.463-0.523l3.85-22.869c0.254-0.681,0.481-1.385,0.673-2.128c0.466,0.135,0.948,0.233,1.468,0.233
			c2.459,0,4.458-1.58,4.458-3.537v-9.538c0-1.952-1.994-3.531-4.458-3.531c-0.531,0-1.022,0.106-1.494,0.238
			C108.075,12.761,93.885,0,76.9,0C59.898,0,45.692,12.792,42.08,28.956c-0.536-0.187-1.118-0.298-1.732-0.298
			c-2.408,0-4.36,1.579-4.36,3.531v9.538c0,1.952,1.952,3.537,4.36,3.537C40.364,45.264,40.379,45.259,40.395,45.259z
			 M98.727,54.057c-19.949,7.058-38.235,1.776-43.654-0.137v-6.719h43.654V54.057z M102.506,66.057
			c-7.741,2.571-15.998,3.876-24.56,3.876c-12.588,0-22.397-2.853-25.673-3.94l-2.817-9.22c0.217,0.132,0.461,0.215,0.688,0.339
			c0.272,0.435,0.632,0.815,1.137,1.038c0.668,0.292,11.356,4.868,26.219,4.868c7.646,0,16.399-1.209,25.461-4.837
			c0.409-0.163,0.728-0.435,0.997-0.74L102.506,66.057z M55.072,41.442c0-3.813,3.091-6.905,6.902-6.905h29.849
			c3.811,0,6.903,3.091,6.903,6.905v0.451H55.072V41.442z"/>
		<path d="M4.528,98.003c0,16.231,1.538,24.534,7.169,28.829c5.631,4.3,16.899,7.21,16.899,7.21s20.992,31.48,20.992,47.305H77.75
			h28.161c0-15.824,20.992-47.305,20.992-47.305s11.262-2.91,16.898-7.21c5.631-4.3,7.169-12.598,7.169-28.829
			s-49.153-37.531-49.153-17.663c0,19.863-24.062,17.663-24.062,17.663s-24.062,2.201-24.062-17.663
			C53.677,60.478,4.528,81.772,4.528,98.003z"/>
		<path d="M276.468,28.658c-0.533,0-1.02,0.106-1.496,0.238C271.342,12.761,257.148,0,240.164,0
			c-17.005,0-31.203,12.792-34.817,28.956c-0.539-0.192-1.119-0.303-1.729-0.303c-2.413,0-4.36,1.58-4.36,3.532v9.538
			c0,1.952,1.947,3.536,4.36,3.536c0.01,0,0.031-0.005,0.041-0.01l7.57,24.791l1.201,0.466c0.498,0.191,12.252,4.72,28.78,4.72
			c9.725,0,19.081-1.582,27.807-4.688l1.466-0.525l3.837-22.846c0.259-0.686,0.486-1.396,0.684-2.149
			c0.466,0.132,0.942,0.233,1.465,0.233c2.46,0,4.458-1.579,4.458-3.537v-9.522C280.926,30.237,278.928,28.658,276.468,28.658z
			 M218.338,47.195h43.657v6.861c-19.951,7.063-38.245,1.776-43.657-0.137V47.195z M218.338,41.442c0-3.813,3.092-6.905,6.902-6.905
			h29.848c3.811,0,6.907,3.091,6.907,6.905v0.451h-43.657V41.442z M265.775,66.057c-7.747,2.571-16.001,3.876-24.565,3.876
			c-12.593,0-22.4-2.853-25.679-3.94l-2.812-9.228c0.218,0.14,0.466,0.223,0.694,0.342c0.27,0.435,0.632,0.815,1.129,1.033
			c0.668,0.292,11.351,4.867,26.222,4.867c7.638,0,16.394-1.209,25.456-4.836c0.403-0.163,0.729-0.436,0.994-0.749L265.775,66.057z"
			/>
		<path d="M269.167,181.358c0-15.83,20.992-47.31,20.992-47.31s11.262-2.91,16.896-7.21c5.64-4.301,7.172-12.599,7.172-28.829
			c0-16.231-49.155-37.531-49.155-17.663c0,19.863-24.058,17.663-24.058,17.663s-24.068,2.2-24.068-17.663
			c0-19.868-49.15,1.432-49.15,17.663c0,16.23,1.538,24.534,7.166,28.829c5.634,4.3,16.901,7.21,16.901,7.21
			s20.992,31.48,20.992,47.31h28.159H269.167z"/>
		<path d="M185.929,223.177c0,19.868-24.061,17.662-24.061,17.662s-24.062,2.201-24.062-17.662s-49.153,1.429-49.153,17.662
			s1.538,24.534,7.169,28.827c5.631,4.303,16.899,7.213,16.899,7.213s20.992,31.478,20.992,47.308h28.161h28.162
			c0-9.15,7.016-23.514,12.93-34.025c-3.858-8.337-6.074-17.575-6.074-27.352c0-16.528,6.219-31.606,16.373-43.128
			C200.116,213.763,185.929,212.499,185.929,223.177z"/>
		<path d="M126.199,171.789c-0.536-0.187-1.119-0.3-1.74-0.3c-2.408,0-4.357,1.578-4.357,3.536v9.538
			c0,1.952,1.95,3.537,4.357,3.537c0.016,0,0.031-0.011,0.052-0.011l7.573,24.793l1.198,0.466c0.492,0.187,12.254,4.717,28.78,4.717
			c9.72,0,19.071-1.579,27.802-4.686l1.46-0.528l3.853-22.866c0.254-0.674,0.486-1.378,0.673-2.123
			c0.466,0.135,0.953,0.232,1.471,0.232c2.46,0,4.458-1.579,4.458-3.536v-9.538c0-1.953-1.998-3.537-4.458-3.537
			c-0.528,0-1.025,0.109-1.496,0.238c-3.63-16.135-17.818-28.896-34.805-28.896C144.014,142.83,129.813,155.625,126.199,171.789z
			 M182.853,196.888c-19.946,7.058-38.24,1.775-43.659-0.141v-6.716h43.659V196.888z M186.622,208.885
			c-7.735,2.574-15.995,3.879-24.56,3.879c-12.588,0-22.396-2.854-25.673-3.94l-2.817-9.217c0.218,0.129,0.464,0.217,0.691,0.336
			c0.27,0.43,0.629,0.812,1.129,1.03c0.668,0.296,11.358,4.868,26.22,4.868c7.647,0,16.404-1.207,25.466-4.837
			c0.404-0.16,0.725-0.435,0.994-0.735L186.622,208.885z M182.853,184.273v0.45h-43.659v-0.45c0-3.816,3.091-6.902,6.905-6.902
			h29.847C179.756,177.371,182.853,180.457,182.853,184.273z"/>
		<path d="M262.244,205.405c-16.473,0-31.281,6.975-41.757,18.093c-9.678,10.273-15.648,24.078-15.648,39.312
			c0,6.576,1.16,12.873,3.2,18.756c7.777,22.483,29.08,38.659,54.205,38.659c31.71,0,57.414-25.709,57.414-57.415
			C319.658,231.109,293.949,205.405,262.244,205.405z M292.701,282.052l-11.319,11.319L262.14,274.13l-19.241,19.241l-11.319-11.319
			l19.241-19.242l-15.845-15.845l-3.396-3.396l3.381-3.382l7.938-7.938l19.241,19.241l19.242-19.241l11.319,11.319l-19.242,19.241
			L292.701,282.052z"/>
	</g>
</g>
<g>
</g>
<g>
</g>
<g>
</g>
<g>
</g>
<g>
</g>
<g>
</g>
<g>
</g>
<g>
</g>
<g>
</g>
<g>
</g>
<g>
</g>
<g>
</g>
<g>
</g>
<g>
</g>
<g>
</g>
</svg>
